<mxfile host="app.diagrams.net" agent="Mozilla/5.0 (X11; Linux x86_64) AppleWebKit/537.36 (KHTML, like Gecko) Chrome/131.0.0.0 Safari/537.36" version="26.0.12">
  <diagram name="第 1 页" id="uwe3nv1H6ymkN90_QkMq">
    <mxGraphModel dx="2261" dy="1955" grid="1" gridSize="10" guides="1" tooltips="1" connect="1" arrows="1" fold="1" page="1" pageScale="1" pageWidth="827" pageHeight="1169" math="0" shadow="0">
      <root>
        <mxCell id="0" />
        <mxCell id="1" parent="0" />
        <mxCell id="0n_Mfnym7IWzTo2RlIgV-1" value="List" style="swimlane;childLayout=stackLayout;resizeParent=1;resizeParentMax=0;startSize=20;horizontal=1;expand=1;resizable=1;rotatable=1;cloneable=1;deletable=1;pointerEvents=1;" vertex="1" parent="1">
          <mxGeometry x="-710" y="-490" width="1220" height="340" as="geometry" />
        </mxCell>
        <mxCell id="0n_Mfnym7IWzTo2RlIgV-2" value="List" style="swimlane;startSize=20;" vertex="1" parent="0n_Mfnym7IWzTo2RlIgV-1">
          <mxGeometry y="20" width="240" height="320" as="geometry" />
        </mxCell>
        <mxCell id="0n_Mfnym7IWzTo2RlIgV-3" style="edgeStyle=orthogonalEdgeStyle;rounded=0;orthogonalLoop=1;jettySize=auto;html=1;exitX=0.5;exitY=1;exitDx=0;exitDy=0;entryX=0.5;entryY=0;entryDx=0;entryDy=0;" edge="1" parent="0n_Mfnym7IWzTo2RlIgV-2" source="0n_Mfnym7IWzTo2RlIgV-4" target="0n_Mfnym7IWzTo2RlIgV-5">
          <mxGeometry relative="1" as="geometry" />
        </mxCell>
        <mxCell id="0n_Mfnym7IWzTo2RlIgV-4" value="" style="rounded=1;whiteSpace=wrap;html=1;arcSize=50;" vertex="1" parent="0n_Mfnym7IWzTo2RlIgV-2">
          <mxGeometry x="45" y="42" width="40" height="40" as="geometry" />
        </mxCell>
        <mxCell id="0n_Mfnym7IWzTo2RlIgV-5" value="" style="whiteSpace=wrap;html=1;aspect=fixed;sketch=0;" vertex="1" parent="0n_Mfnym7IWzTo2RlIgV-2">
          <mxGeometry x="40" y="110" width="50" height="50" as="geometry" />
        </mxCell>
        <mxCell id="0n_Mfnym7IWzTo2RlIgV-6" value="List2" style="swimlane;startSize=20;" vertex="1" parent="0n_Mfnym7IWzTo2RlIgV-1">
          <mxGeometry x="240" y="20" width="240" height="320" as="geometry" />
        </mxCell>
        <mxCell id="0n_Mfnym7IWzTo2RlIgV-7" value="" style="whiteSpace=wrap;html=1;aspect=fixed;sketch=0;" vertex="1" parent="0n_Mfnym7IWzTo2RlIgV-6">
          <mxGeometry x="90" y="110" width="50" height="50" as="geometry" />
        </mxCell>
        <mxCell id="0n_Mfnym7IWzTo2RlIgV-8" style="edgeStyle=orthogonalEdgeStyle;rounded=0;orthogonalLoop=1;jettySize=auto;html=1;exitX=1;exitY=0.5;exitDx=0;exitDy=0;entryX=0;entryY=0.5;entryDx=0;entryDy=0;" edge="1" parent="0n_Mfnym7IWzTo2RlIgV-1" source="0n_Mfnym7IWzTo2RlIgV-5" target="0n_Mfnym7IWzTo2RlIgV-7">
          <mxGeometry relative="1" as="geometry" />
        </mxCell>
        <mxCell id="0n_Mfnym7IWzTo2RlIgV-9" value="List3" style="swimlane;startSize=20;" vertex="1" parent="0n_Mfnym7IWzTo2RlIgV-1">
          <mxGeometry x="480" y="20" width="500" height="320" as="geometry" />
        </mxCell>
        <mxCell id="0n_Mfnym7IWzTo2RlIgV-10" style="edgeStyle=orthogonalEdgeStyle;rounded=0;orthogonalLoop=1;jettySize=auto;html=1;exitX=1;exitY=0.5;exitDx=0;exitDy=0;entryX=0;entryY=0.5;entryDx=0;entryDy=0;" edge="1" parent="0n_Mfnym7IWzTo2RlIgV-9" source="0n_Mfnym7IWzTo2RlIgV-12" target="0n_Mfnym7IWzTo2RlIgV-13">
          <mxGeometry relative="1" as="geometry" />
        </mxCell>
        <mxCell id="0n_Mfnym7IWzTo2RlIgV-11" style="edgeStyle=orthogonalEdgeStyle;rounded=0;orthogonalLoop=1;jettySize=auto;html=1;exitX=0.5;exitY=1;exitDx=0;exitDy=0;entryX=0.5;entryY=0;entryDx=0;entryDy=0;" edge="1" parent="0n_Mfnym7IWzTo2RlIgV-9" source="0n_Mfnym7IWzTo2RlIgV-12" target="0n_Mfnym7IWzTo2RlIgV-14">
          <mxGeometry relative="1" as="geometry" />
        </mxCell>
        <mxCell id="0n_Mfnym7IWzTo2RlIgV-12" value="" style="rhombus;whiteSpace=wrap;html=1;sketch=0;" vertex="1" parent="0n_Mfnym7IWzTo2RlIgV-9">
          <mxGeometry x="40" y="115" width="80" height="40" as="geometry" />
        </mxCell>
        <mxCell id="0n_Mfnym7IWzTo2RlIgV-13" value="" style="rounded=0;whiteSpace=wrap;html=1;sketch=0;" vertex="1" parent="0n_Mfnym7IWzTo2RlIgV-9">
          <mxGeometry x="200" y="105" width="120" height="60" as="geometry" />
        </mxCell>
        <mxCell id="0n_Mfnym7IWzTo2RlIgV-14" value="" style="rounded=0;whiteSpace=wrap;html=1;sketch=0;" vertex="1" parent="0n_Mfnym7IWzTo2RlIgV-9">
          <mxGeometry x="20" y="220" width="120" height="60" as="geometry" />
        </mxCell>
        <mxCell id="0n_Mfnym7IWzTo2RlIgV-15" style="edgeStyle=orthogonalEdgeStyle;rounded=0;orthogonalLoop=1;jettySize=auto;html=1;exitX=0;exitY=0.5;exitDx=0;exitDy=0;entryX=0.5;entryY=1;entryDx=0;entryDy=0;" edge="1" parent="0n_Mfnym7IWzTo2RlIgV-1" source="0n_Mfnym7IWzTo2RlIgV-14" target="0n_Mfnym7IWzTo2RlIgV-7">
          <mxGeometry relative="1" as="geometry" />
        </mxCell>
        <mxCell id="0n_Mfnym7IWzTo2RlIgV-16" value="List3" style="swimlane;startSize=20;" vertex="1" parent="0n_Mfnym7IWzTo2RlIgV-1">
          <mxGeometry x="980" y="20" width="240" height="320" as="geometry" />
        </mxCell>
        <mxCell id="0n_Mfnym7IWzTo2RlIgV-17" value="" style="rounded=0;whiteSpace=wrap;html=1;sketch=0;" vertex="1" parent="0n_Mfnym7IWzTo2RlIgV-16">
          <mxGeometry x="60" y="105" width="120" height="60" as="geometry" />
        </mxCell>
        <mxCell id="0n_Mfnym7IWzTo2RlIgV-18" style="edgeStyle=orthogonalEdgeStyle;rounded=0;orthogonalLoop=1;jettySize=auto;html=1;exitX=1;exitY=0.5;exitDx=0;exitDy=0;entryX=0;entryY=0.5;entryDx=0;entryDy=0;" edge="1" parent="0n_Mfnym7IWzTo2RlIgV-1" source="0n_Mfnym7IWzTo2RlIgV-13" target="0n_Mfnym7IWzTo2RlIgV-17">
          <mxGeometry relative="1" as="geometry" />
        </mxCell>
        <mxCell id="0n_Mfnym7IWzTo2RlIgV-19" style="edgeStyle=orthogonalEdgeStyle;rounded=0;orthogonalLoop=1;jettySize=auto;html=1;exitX=1;exitY=0.5;exitDx=0;exitDy=0;entryX=0;entryY=0.5;entryDx=0;entryDy=0;" edge="1" parent="0n_Mfnym7IWzTo2RlIgV-1" source="0n_Mfnym7IWzTo2RlIgV-7" target="0n_Mfnym7IWzTo2RlIgV-12">
          <mxGeometry relative="1" as="geometry" />
        </mxCell>
      </root>
    </mxGraphModel>
  </diagram>
</mxfile>
